<?xml version="1.0" encoding="UTF-8" standalone="no"?>
<!-- Generator: Adobe Illustrator 16.0.1, SVG Export Plug-In . SVG Version: 6.00 Build 0)  -->
<!DOCTYPE svg  PUBLIC '-//W3C//DTD SVG 1.1//EN'  'http://www.w3.org/Graphics/SVG/1.1/DTD/svg11.dtd'>
<svg name="hello" xmlns="http://www.w3.org/2000/svg" width="32" height="32" viewBox="0 0 32 32"><g fill="none" fill-rule="evenodd"><path fill="#323232" d="M11.0228,14.415 C11.256,15.0707 11.5508,15.6973 11.9003,16.2878 C8.6696,16.9187 5.4407,17.5588 2.2095,18.1869 C2.077,18.2126 1.9852,18.3451 2.0077,18.4735 C2.0785,18.8505 2.1498,19.2275 2.2215,19.6044 C4.9181,20.5778 7.6115,21.5602 10.3128,22.5205 C11.2033,22.8286 12.2362,22.6271 12.9485,21.9952 L15.3312,19.8634 C15.9302,20.2523 16.5701,20.5835 17.243,20.849 L14.2851,23.4955 C13.0444,24.596 11.2063,24.9706 9.6122,24.4039 L2.6625,21.8991 C3.1722,24.5272 3.6947,27.1528 4.2055,29.7807 C4.231,29.9121 4.3631,30.005 4.492,29.9825 C10.0166,28.9454 15.5276,27.8375 21.0453,26.7649 C21.177,26.7393 21.2697,26.6073 21.2472,26.4782 C20.9391,24.838 20.6221,23.1994 20.3018,21.5615 C20.5983,21.5859 20.8981,21.5984 21.2008,21.5984 C21.5859,21.5984 21.9663,21.5782 22.3411,21.5388 C22.633,23.0565 22.9241,24.5743 23.2189,26.0913 C23.4352,27.2427 22.6525,28.4756 21.4636,28.7303 C15.9423,29.8399 10.4072,30.8796 4.879,31.9542 C3.7276,32.1704 2.4947,31.3878 2.2401,30.1989 C1.4815,26.4241 0.7706,22.6399 0.0359,18.8605 C-0.1803,17.709 0.6023,16.4761 1.7912,16.2215 C4.8653,15.6037 7.9437,15.0075 11.0228,14.415 Z" opacity=".5"></path><path fill="#D40511" d="M21.2008,0 C27.161,0 32,4.8389 32,10.7992 C32,16.7594 27.161,21.5984 21.2008,21.5984 C15.2405,21.5984 10.4015,16.7594 10.4015,10.7992 C10.4015,4.8389 15.2405,0 21.2008,0 Z M19.7797,17.6418 L22.4676,17.6418 L22.4676,14.8633 L19.7797,14.8633 L19.7797,17.6418 Z M19.7797,12.1959 L22.4676,12.1959 L22.4676,3.9715 L19.7797,3.9715 L19.7797,12.1959 Z"></path></g></svg>
